JAZZ A FILM by KEN BURNS
Episode 6 " "Swing: The Velocity of Celebration" (1937 to 1939) of 10 Episodes
Label: PDS
Released:2001
Duration: 1hr 41mn
Language: English
Format: Mpeg4

Swing would be reacquainted with its blues roots by way of Kansas City, when Count Basie and the Barons of Rhythm brought their hot sound to the Big Apple. Basie would also give Billie Holiday her first break, offering her a chance to travel, perform, drink, and gamble with the rest of the band. Another young singer named Ella Fitzgerald would get her start in Chick Webb’s band at the Savoy Ballroom, and then be named top female vocalist—over Billy Holiday—by Down Beat in 1937. 

Credits
Ken Burns—Director/Producer/Cinematography
Lynn Novick--Producer
Geoffrey C. Ward—Screenwriter 
Buddy Squires—Cinematography 
Keith David—Narrator
Paul Barnes—Film Editor

Episode 1
Episode 2
[url]
Episode 3
Episode 4
Episode 5

Episodes 7 -10 to follow


General
Complete name                    : F:\MUSIC UP\Jazz a Film by Ken Burns Episode 6(jazz
Format                           : MPEG-4
File size                        : 690 MiB
Overall bit rate                 : 938 Kbps

Video
ID                               : 1
Format                           : MPEG-4 Visual
Format settings, Matrix          : Default (H.263)
Codec ID                         : 20
Bit rate                         : 868 Kbps Variable
Maximum bit rate                 : 3 581 Kbps
Width   x Height                   : 448 x 336 pixels
Display aspect ratio             : 4:3
Frame rate mode                  : Constant
Frame rate                       : 29.970 fps
Bit depth                        : 8 bits
Scan type                        : Progressive
Bits/(Pixel*Frame)               : 0.192
Stream size                      : 631 MiB (91%)
Language                         : English

Audio
ID                               : 2
Format                           : AAC Version 4
Format settings, SBR             : No
Codec ID                         : 40
Bit rate mode                    : Variable
Bit rate                         : 74.1 Kbps
Maximum bit rate                 : 136 Kbps
Channel(s)                       : 2 channels
Channel positions                : Front: L R
Sampling rate                    : 44.1 KHz
Stream size                      : 53.8 MiB (8%)

